<?xml version="1.0" encoding="UTF-8"?>
<svg width="24px" height="24px" viewBox="0 0 24 24" version="1.1" xmlns="http://www.w3.org/2000/svg" xmlns:xlink="http://www.w3.org/1999/xlink">
    <!-- Generator: Sketch 48.1 (47250) - http://www.bohemiancoding.com/sketch -->
    <title>list_icon02</title>
    <desc>Created with Sketch.</desc>
    <defs></defs>
    <g id="gd_icon-copy-9" stroke="none" stroke-width="1" fill="none" fill-rule="evenodd">
        <g id="gd_icon">
            <rect id="Rectangle-3" x="0" y="0" width="24" height="24"></rect>
        </g>
        <path d="M3.04317963,6.01907646 C3.04317963,4.91563314 3.93685328,4.02066981 5.04029546,4.01907854 L18.956222,3.99901053 C18.9571834,3.99900915 18.9581448,3.99900845 18.9591062,3.99900845 C20.0636757,3.99900845 20.9591062,4.89443895 20.9591062,5.99900845 L20.9591062,17.4640796 C20.9591062,18.5686491 20.0636757,19.4640796 18.9591062,19.4640796 L7.20542542,19.4640796 C6.40977595,19.4640796 5.64671421,19.7801501 5.08410508,20.3427593 L4.50298218,20.9238822 C4.34261372,21.0842506 4.12510742,21.1743447 3.89831217,21.1743447 C3.42603551,21.1743447 3.04317963,20.7914888 3.04317963,20.3192121 L3.04317963,6.01907646 Z M7.19334138,12.790818 C8.42342496,14.8409573 10.0620201,15.933354 12.0431796,15.933354 C14.0243391,15.933354 15.6629343,14.8409573 16.8930179,12.790818 C17.1921117,12.2923283 17.0304694,11.6457591 16.5319797,11.3466653 C16.03349,11.0475715 15.3869209,11.2092138 15.0878271,11.7077035 C14.2127144,13.1662245 13.2198144,13.8281579 12.0431796,13.8281579 C10.8665449,13.8281579 9.87364482,13.1662245 8.99853221,11.7077035 C8.6994384,11.2092138 8.05286923,11.0475715 7.55437955,11.3466653 C7.05588987,11.6457591 6.89424757,12.2923283 7.19334138,12.790818 Z" id="Combined-Shape" fill="#8F7E84" opacity="0.400000006"></path>
    </g>
</svg>