<?xml version="1.0" encoding="UTF-8"?>
<svg width="24px" height="24px" viewBox="0 0 24 24" version="1.1" xmlns="http://www.w3.org/2000/svg" xmlns:xlink="http://www.w3.org/1999/xlink">
    <!-- Generator: Sketch 48.1 (47250) - http://www.bohemiancoding.com/sketch -->
    <title>list_icon03</title>
    <desc>Created with Sketch.</desc>
    <defs></defs>
    <g id="gd_icon-copy-7" stroke="none" stroke-width="1" fill="none" fill-rule="evenodd">
        <g id="gd_icon">
            <rect id="Rectangle-3" x="0" y="0" width="24" height="24"></rect>
        </g>
        <path d="M21,18 C19,22.52 5,22.48 3,17.98 C1,13.48 6.4771525,3 12,3 C17.5228475,3 23,13.48 21,18 Z M11.0338956,7.88964634 L11.2958438,14.3149024 C11.31145,14.6977036 11.6263217,15 12.0094409,15 C12.3928495,15 12.7082392,14.6980274 12.7248966,14.3149807 L13.0043164,7.8895289 C13.0279447,7.34618207 12.6066295,6.886558 12.0632827,6.86292979 C12.0490302,6.86231 12.0347659,6.862 12.0205,6.862 C11.4751608,6.862 11.0330761,7.30408476 11.0330761,7.84942395 C11.0330761,7.86283559 11.0333493,7.87624583 11.0338956,7.88964634 Z M12.040655,16 C11.7596633,16 11.5282583,16.0840336 11.3299112,16.2857143 C11.1315641,16.4705882 11.0489195,16.7058824 11.0489195,16.9915966 C11.0489195,17.2773109 11.1315641,17.512605 11.3299112,17.7142857 C11.5282583,17.8991597 11.7596633,18 12.040655,18 C12.3216467,18 12.5695806,17.8991597 12.7679277,17.7142857 C12.9497459,17.5294118 13.0489195,17.2941176 13.0489195,16.9915966 C13.0489195,16.7058824 12.9497459,16.4705882 12.7679277,16.2857143 C12.5695806,16.0840336 12.3216467,16 12.040655,16 Z" id="Combined-Shape" fill="#8F7E84" opacity="0.400000006"></path>
    </g>
</svg>