<?xml version="1.0" encoding="UTF-8"?>
<svg width="24px" height="24px" viewBox="0 0 24 24" version="1.1" xmlns="http://www.w3.org/2000/svg" xmlns:xlink="http://www.w3.org/1999/xlink">
    <!-- Generator: Sketch 48.1 (47250) - http://www.bohemiancoding.com/sketch -->
    <title>list_icon01</title>
    <desc>Created with Sketch.</desc>
    <defs></defs>
    <g id="gd_icon-copy-6" stroke="none" stroke-width="1" fill="none" fill-rule="evenodd">
        <g id="gd_icon">
            <rect id="Rectangle-3" x="0" y="0" width="24" height="24"></rect>
        </g>
        <path d="M12,22 C6.4771525,22 2,17.5228475 2,12 C2,6.4771525 6.4771525,2 12,2 C17.5228475,2 22,6.4771525 22,12 C22,17.5228475 17.5228475,22 12,22 Z M12.0241667,7 C10.99,7 10.1683333,7.2975 9.57333333,7.90666667 C8.96416667,8.50166667 8.66666667,9.30916667 8.66666667,10.3433333 L10.1683333,10.3433333 C10.1683333,9.72 10.2958333,9.22416667 10.5508333,8.88416667 C10.8341667,8.4875 11.3016667,8.28916667 11.9391667,8.28916667 C12.4491667,8.28916667 12.8458333,8.43083333 13.1291667,8.71416667 C13.3983333,8.9975 13.54,9.38 13.54,9.87583333 C13.54,10.2441667 13.4125,10.5841667 13.1575,10.91 L12.9166667,11.1791667 C12.0383333,11.9583333 11.5,12.5391667 11.3016667,12.9358333 C11.1175,13.3041667 11.0325,13.7575 11.0325,14.2816667 L11.0325,14.5225 L12.5483333,14.5225 L12.5483333,14.2816667 C12.5483333,13.9275 12.6191667,13.6158333 12.775,13.3325 C12.9025,13.0775 13.1008333,12.8366667 13.3558333,12.61 C14.0358333,12.0291667 14.4325,11.6608333 14.56,11.505 C14.9,11.0516667 15.0841667,10.4708333 15.0841667,9.77666667 C15.0841667,8.92666667 14.8008333,8.24666667 14.2483333,7.75083333 C13.6816667,7.24083333 12.945,7 12.0241667,7 Z M11.7833333,15.2875 C11.4858333,15.2875 11.245,15.3725 11.0608333,15.5708333 C10.8483333,15.755 10.7491667,15.9958333 10.7491667,16.2933333 C10.7491667,16.5766667 10.8483333,16.8175 11.0608333,17.0158333 C11.245,17.2141667 11.4858333,17.3133333 11.7833333,17.3133333 C12.0666667,17.3133333 12.3216667,17.2141667 12.5341667,17.03 C12.7325,16.8316667 12.8316667,16.5908333 12.8316667,16.2933333 C12.8316667,15.9958333 12.7325,15.755 12.5341667,15.5708333 C12.3358333,15.3725 12.0808333,15.2875 11.7833333,15.2875 Z" id="Combined-Shape" fill="#8F7E84" opacity="0.400000006"></path>
    </g>
</svg>