<?xml version="1.0" encoding="UTF-8"?>
<svg width="24px" height="24px" viewBox="0 0 24 24" version="1.1" xmlns="http://www.w3.org/2000/svg" xmlns:xlink="http://www.w3.org/1999/xlink">
    <!-- Generator: Sketch 48.1 (47250) - http://www.bohemiancoding.com/sketch -->
    <title>list_icon04</title>
    <desc>Created with Sketch.</desc>
    <defs></defs>
    <g id="gd_icon-copy-8" stroke="none" stroke-width="1" fill="none" fill-rule="evenodd">
        <g id="gd_icon">
            <rect id="Rectangle-3" x="0" y="0" width="24" height="24"></rect>
            <path d="M3.58235243,15.1813527 L16.9322209,5.28326726 C17.1803265,5.09931257 17.4810043,5.00000479 17.7898663,5.00000432 L19.2,5 C19.99529,4.99999879 20.640001,5.64470778 20.6400022,6.43999782 C20.6400022,6.43999854 20.6400022,6.43999927 20.6400022,6.44 L20.64,18.3934148 L3.72,18.3934148 C3.32235498,18.3934148 3,18.0710598 3,17.6734148 L3,16.3380897 C3,15.8820497 3.2160202,15.4529649 3.58235243,15.1813527 Z" id="Path-33" fill="#8F7E84" opacity="0.400000006"></path>
            <path d="M3,12.2397223 L3,6.45120158 C3,5.65591154 3.64470996,5.01120158 4.44,5.01120158 C4.44371938,5.01120158 4.44743875,5.01121599 4.45115801,5.01124481 L6.41735204,5.02648056 C6.71572495,5.02879261 7.00601159,5.1237346 7.24808523,5.29818256 L10.8677207,7.90663693 L4.14489717,12.8209816 C3.82387651,13.0556458 3.3734049,12.9856401 3.13874068,12.6646194 C3.04858904,12.541292 3,12.3924867 3,12.2397223 Z" id="Path-32" fill="#8F7E84" opacity="0.400000006"></path>
        </g>
    </g>
</svg>