<?xml version="1.0" encoding="UTF-8"?>
<svg width="24px" height="24px" viewBox="0 0 24 24" version="1.1" xmlns="http://www.w3.org/2000/svg" xmlns:xlink="http://www.w3.org/1999/xlink">
    <!-- Generator: Sketch 48.1 (47250) - http://www.bohemiancoding.com/sketch -->
    <title>list_icon05</title>
    <desc>Created with Sketch.</desc>
    <defs></defs>
    <g id="gd_icon-copy-5" stroke="none" stroke-width="1" fill="none" fill-rule="evenodd">
        <g id="gd_icon">
            <rect id="Rectangle-3" x="0" y="0" width="24" height="24"></rect>
            <path d="M21.4290922,10.8566095 C21.4758996,11.2452291 21.5,11.624408 21.5,12 C21.5,12.4578319 21.466286,12.9146334 21.4001339,13.3703478 L20.9061594,13.7985193 C20.3746025,13.7994117 19.8645885,14.0066783 19.4811934,14.3900734 C18.7072707,15.1639961 18.6927351,16.4126429 19.4450999,17.2060826 L19.475541,17.8589011 C18.95293,18.5244943 18.3487366,19.1162557 17.6785763,19.6165162 L17.0263463,19.5698125 C16.6498456,19.194204 16.1425801,18.98 15.6,18.98 C14.5053872,18.98 13.6120603,19.8528507 13.5834285,20.9457742 L13.1433905,21.4290922 C12.7547709,21.4758996 12.375592,21.5 12,21.5 C11.5421681,21.5 11.0853666,21.466286 10.6296522,21.4001339 L10.2014807,20.9061594 C10.2005883,20.3746025 9.99332167,19.8645885 9.60992661,19.4811934 C8.83600392,18.7072707 7.58735711,18.6927351 6.79391739,19.4450999 L6.14120862,19.4756271 C5.4757756,18.9534418 4.88417942,18.3493195 4.38348382,17.6785763 L4.43018746,17.0263463 C4.80579597,16.6498456 5.02,16.1425801 5.02,15.6 C5.02,14.5053872 4.14714926,13.6120603 3.05422579,13.5834285 L2.57090778,13.1433905 C2.52410036,12.7547709 2.5,12.375592 2.5,12 C2.5,11.5421681 2.53371404,11.0853666 2.59986613,10.6296522 L3.09384061,10.2014807 C3.62539753,10.2005883 4.13541155,9.99332167 4.51880661,9.60992661 C5.29272929,8.83600392 5.30726493,7.58735711 4.5549001,6.79391739 L4.52445896,6.14109893 C5.04707004,5.47550573 5.65126344,4.88374429 6.3214237,4.38348382 L6.97365374,4.43018746 C7.35015444,4.80579597 7.8574199,5.02 8.4,5.02 C9.49461285,5.02 10.3879397,4.14714926 10.4165715,3.05422579 L10.8566095,2.57090778 C11.2452291,2.52410036 11.624408,2.5 12,2.5 C12.4578319,2.5 12.9146334,2.53371404 13.3703478,2.59986613 L13.7985193,3.09384108 C13.7994114,3.62555578 14.0065477,4.1353598 14.3896477,4.51874089 C15.1639345,5.29273992 16.4126321,5.30727512 17.2060826,4.5549001 L17.8589011,4.52445896 C18.5244943,5.04707004 19.1162557,5.65126344 19.6165162,6.3214237 L19.5698125,6.97365374 C19.194204,7.35015444 18.98,7.8574199 18.98,8.4 C18.98,9.49461285 19.8528507,10.3879397 20.9457742,10.4165715 L21.4290922,10.8566095 Z M12,14.1428571 L12,14.5 C13.3806374,14.5 14.5,13.3806374 14.5,12 C14.5,10.6193626 13.3806374,9.5 12,9.5 C10.6193626,9.5 9.5,10.6193626 9.5,12 C9.5,13.3806374 10.6193626,14.5 12,14.5 L12,14.1428571 Z" id="Combined-Shape" fill="#8F7E84" fill-rule="nonzero" opacity="0.400000006"></path>
        </g>
    </g>
</svg>