<?xml version="1.0" encoding="UTF-8"?>
<svg width="24px" height="24px" viewBox="0 0 24 24" version="1.1" xmlns="http://www.w3.org/2000/svg" xmlns:xlink="http://www.w3.org/1999/xlink">
    <!-- Generator: Sketch 48.1 (47250) - http://www.bohemiancoding.com/sketch -->
    <title>bottom_navIcon_nor5@2x</title>
    <desc>Created with Sketch.</desc>
    <defs></defs>
    <g id="home_default-copy-15" stroke="none" stroke-width="1" fill="none" fill-rule="evenodd">
        <g id="Group"></g>
        <rect id="Rectangle" fill="#9F9B9C" opacity="0.763677542" x="8" y="3" width="8" height="9" rx="4"></rect>
        <path d="M4.75,19 L4.75,19 C5.22298653,17.7387026 6.25404724,16.7679855 7.54154486,16.3718324 L8.75,16 C10.870982,15.3473901 13.1358042,15.3245155 15.2695349,15.9341528 L16.9461839,16.4131954 C18.2379896,16.7822827 19.2782663,17.7420435 19.75,19 L19.75,19 C20.0370502,19.7654672 19.6492166,20.6187011 18.8837494,20.9057513 C18.7175513,20.9680756 18.5414987,21 18.3639991,21 L6.13600094,21 C5.31848163,21 4.65575129,20.3372697 4.65575129,19.5197504 C4.65575129,19.3422507 4.68767572,19.1661981 4.75,19 Z" id="Path-18" fill="#9F9B9C" opacity="0.763677542"></path>
    </g>
</svg>