<?xml version="1.0" encoding="UTF-8"?>
<svg width="24px" height="24px" viewBox="0 0 24 24" version="1.1" xmlns="http://www.w3.org/2000/svg" xmlns:xlink="http://www.w3.org/1999/xlink">
    <!-- Generator: Sketch 48.1 (47250) - http://www.bohemiancoding.com/sketch -->
    <title>bottom_navIcon_sel1@2x</title>
    <desc>Created with Sketch.</desc>
    <defs>
        <linearGradient x1="125.147513%" y1="-34.6297859%" x2="-30.2673519%" y2="113.61469%" id="linearGradient-1">
            <stop stop-color="#FF6F43" offset="0%"></stop>
            <stop stop-color="#F01C13" offset="100%"></stop>
            <stop stop-color="#FF564A" offset="100%"></stop>
        </linearGradient>
    </defs>
    <g id="home_default-copy-20" stroke="none" stroke-width="1" fill="none" fill-rule="evenodd">
        <path d="M4.17764968,8.98179731 L10.1776497,4.39356201 C11.2533164,3.57099334 12.7466836,3.57099334 13.8223503,4.39356201 L19.8223503,8.98179731 C20.564607,9.54940537 21,10.4304598 21,11.3648708 L21,18 C21,19.6568542 19.6568542,21 18,21 L15.0726483,21 C14.5203636,21 14.0726483,20.5522847 14.0726483,20 L14.0726483,16.5 L10.5,16.5 L10.5,20 C10.5,20.5522847 10.0522847,21 9.5,21 L6,21 C4.34314575,21 3,19.6568542 3,18 L3,11.3648708 C3,10.4304598 3.43539298,9.54940537 4.17764968,8.98179731 Z" id="Combined-Shape" fill="url(#linearGradient-1)"></path>
    </g>
</svg>