<?xml version="1.0" encoding="UTF-8"?>
<svg width="24px" height="24px" viewBox="0 0 24 24" version="1.1" xmlns="http://www.w3.org/2000/svg" xmlns:xlink="http://www.w3.org/1999/xlink">
    <!-- Generator: Sketch 48.1 (47250) - http://www.bohemiancoding.com/sketch -->
    <title>bottom_navIcon_nor2@2x</title>
    <desc>Created with Sketch.</desc>
    <defs></defs>
    <g id="home_default-copy-12" stroke="none" stroke-width="1" fill="none" fill-rule="evenodd" opacity="0.763677542">
        <path d="M7,3 L17,3 C18.6568542,3 20,4.34314575 20,6 L20,18 C20,19.6568542 18.6568542,21 17,21 L7,21 C5.34314575,21 4,19.6568542 4,18 L4,6 C4,4.34314575 5.34314575,3 7,3 Z M15.75,6.75 L14.25,6.75 C14.25,8.19568611 13.3792501,9 12,9 C10.6207499,9 9.75,8.19568611 9.75,6.75 L8.25,6.75 C8.25,9.0518718 9.81774295,10.5 12,10.5 C14.182257,10.5 15.75,9.0518718 15.75,6.75 Z" id="Combined-Shape" fill="#9F9B9C"></path>
    </g>
</svg>