<?xml version="1.0" encoding="UTF-8"?>
<svg width="44px" height="44px" viewBox="0 0 44 44" version="1.1" xmlns="http://www.w3.org/2000/svg" xmlns:xlink="http://www.w3.org/1999/xlink">
    <!-- Generator: Sketch 48.1 (47250) - http://www.bohemiancoding.com/sketch -->
    <title>more</title>
    <desc>Created with Sketch.</desc>
    <defs></defs>
    <g id="Group-25" stroke="none" stroke-width="1" fill="none" fill-rule="evenodd">
        <g fill="#202020" id="・・・">
            <path d="M22.168,15 C22.488,15 22.76,15.112 22.984,15.336 C23.208,15.56 23.336,15.848 23.336,16.168 C23.336,16.488 23.208,16.76 22.984,16.984 C22.76,17.208 22.488,17.32 22.168,17.32 C21.848,17.32 21.576,17.208 21.352,16.984 C21.112,16.76 21,16.488 21,16.168 C21,15.848 21.112,15.56 21.352,15.336 C21.576,15.112 21.848,15 22.168,15 Z M22.168,21 C22.488,21 22.76,21.112 22.984,21.336 C23.208,21.56 23.336,21.848 23.336,22.168 C23.336,22.488 23.208,22.76 22.984,22.984 C22.76,23.208 22.488,23.32 22.168,23.32 C21.848,23.32 21.576,23.208 21.352,22.984 C21.112,22.76 21,22.488 21,22.168 C21,21.848 21.112,21.56 21.352,21.336 C21.576,21.112 21.848,21 22.168,21 Z M22.168,27 C22.488,27 22.76,27.112 22.984,27.336 C23.208,27.56 23.336,27.848 23.336,28.168 C23.336,28.488 23.208,28.76 22.984,28.984 C22.76,29.208 22.488,29.32 22.168,29.32 C21.848,29.32 21.576,29.208 21.352,28.984 C21.112,28.76 21,28.488 21,28.168 C21,27.848 21.112,27.56 21.352,27.336 C21.576,27.112 21.848,27 22.168,27 Z"></path>
        </g>
    </g>
</svg>