<?xml version="1.0" encoding="UTF-8"?>
<svg width="32px" height="32px" viewBox="0 0 32 32" version="1.1" xmlns="http://www.w3.org/2000/svg" xmlns:xlink="http://www.w3.org/1999/xlink">
    <!-- Generator: Sketch 48.1 (47250) - http://www.bohemiancoding.com/sketch -->
    <title>nav_icon10</title>
    <desc>Created with Sketch.</desc>
    <defs></defs>
    <g id="nav_icon-copy-25" stroke="none" stroke-width="1" fill="none" fill-rule="evenodd">
        <rect id="Rectangle-2" fill-opacity="0" fill="#D8D8D8" x="0" y="0" width="32" height="32"></rect>
        <polygon id="Combined-Shape" fill="#1C1B1B" transform="translate(23.710050, 24.426933) rotate(-14.000000) translate(-23.710050, -24.426933) " points="23.0073287 21.6531874 20.5478034 27.2006789 26.872297 27.2006789"></polygon>
        <path d="M14.9707058,16.9705627 L11.9707058,16.9705627 L11.9707058,14.9705627 L14.931926,14.9705627 L11.9707058,12.4774685 L13.4871115,10.9705627 L16.055466,13.1328977 L18.3874126,10.9999121 L19.9707058,12.4481191 L17.2129732,14.9705627 L19.9707058,14.9705627 L19.9707058,16.9705627 L16.9707058,16.9705627 L16.9707058,17.9705627 L19.9707058,17.9705627 L19.9707058,19.9705627 L16.9707058,19.9705627 L16.9707058,21.9705627 L14.9707058,21.9705627 L14.9707058,19.9705627 L11.9707058,19.9705627 L11.9707058,17.9705627 L14.9707058,17.9705627 L14.9707058,16.9705627 Z" id="Combined-Shape" fill="#FF1C1C" fill-rule="nonzero"></path>
        <path d="M15.9707354,27.9706343 C18.7363469,27.9706343 21.283444,27.035063 23.3127999,25.4631472 C26.1465233,23.2681777 27.9707354,19.8324398 27.9707354,15.9706343 C27.9707354,9.34321726 22.5981524,3.97063426 15.9707354,3.97063426 C9.34331839,3.97063426 3.97073539,9.34321726 3.97073539,15.9706343 C3.96282293,17.314588 4.1870595,18.6585418 4.6434451,20.0024956" id="Oval-10" stroke="#1C1B1B" stroke-width="3" opacity="0.982506793" transform="translate(15.970634, 15.970634) rotate(-45.000000) translate(-15.970634, -15.970634) "></path>
    </g>
</svg>